#!OML:ASF E:\Steps\Project 1\Capture day 1\Session 2\Subject.ASF
:FULLY-SPECIFIED
:DEGREES
317
root -0.871782 17.6478 19.1092 -161.751 -7.89848 182.952
lowerback -24.7276 -3.66107 -9.40081
upperback 1.57033 -2.27215 0.319506
thorax 15.4968 -1.86305 4.66549
lowerneck 2.73245 -8.70286 -2.05308
upperneck 18.4535 -14.953 5.68514
head 5.74959 -7.79537 1.37371
rclavicle 2.52457e-014 -1.59028e-015
rhumerus -45.133 -19.4358 -72.5909
rradius 32.0783
rwrist -1.52034
rhand -8.17305 -53.9967
rfingers 7.12502
rthumb 17.7423 -83.2073
lclavicle 2.52457e-014 -1.59028e-015
lhumerus -32.9069 0.154102 74.4218
lradius 23.7812
lwrist -2.87542
lhand -21.8543 -11.8938
lfingers 7.12502
lthumb 4.54949 18.0373
rfemur -47.763 0.601105 9.80984
rtibia 25.9235
rfoot -17.0384 -13.7058
rtoes -27.0728
lfemur -17.3165 -17.2961 -16.6638
ltibia 23.4259
lfoot -20.5888 -1.2219
ltoes -29.3732
318
root -0.855661 17.6297 19.0497 -161.941 -8.10965 183.087
lowerback -24.6014 -3.67862 -9.40549
upperback 1.42949 -2.33104 0.386759
thorax 15.2794 -1.88282 4.725
lowerneck 2.46496 -8.4735 -2.61208
upperneck 19.383 -14.9777 6.17595
head 6.16756 -7.83455 1.55445
rclavicle 3.97569e-016 6.36111e-015
rhumerus -45.693 -19.4843 -72.2437
rradius 31.9741
rwrist -1.37289
rhand -8.41449 -54.1011
rfingers 7.12502
rthumb 17.51 -83.3326
lclavicle 3.97569e-016 6.36111e-015
lhumerus -33.1938 -0.235941 74.4693
lradius 24.0838
lwrist -2.59293
lhand -21.7012 -12.0242
lfingers 7.12502
lthumb 4.69728 17.9037
rfemur -47.6405 0.892503 9.0752
rtibia 24.8143
rfoot -16.923 -13.8969
rtoes -26.95
lfemur -17.0281 -17.3603 -16.5122
ltibia 23.6104
lfoot -20.7069 -1.217
ltoes -29.6115
319
root -0.830884 17.6251 18.9963 -162.162 -8.35995 183.503
lowerback -24.2365 -3.63613 -9.26155
upperback 0.797618 -2.40637 0.439795
thorax 15.0515 -1.91665 4.92009
lowerneck 3.27472 -8.64859 -2.41607
upperneck 19.0652 -15.2005 6.00576
head 5.91724 -7.98397 1.51976
rclavicle 1.78906e-015 3.18055e-014
rhumerus -46.4491 -19.3893 -71.862
rradius 31.7948
rwrist -1.3362
rhand -8.06907 -53.6588
rfingers 7.12502
rthumb 17.8424 -82.8603
lclavicle 1.78906e-015 3.18055e-014
lhumerus -33.6777 -0.672848 74.498
lradius 24.3979
lwrist -2.25927
lhand -21.293 -12.1502
lfingers 7.12502
lthumb 5.09145 17.7687
rfemur -47.4645 1.54209 8.57358
rtibia 23.5824
rfoot -16.6179 -14.5287
rtoes -27.1948
lfemur -16.8706 -17.3058 -15.8884
ltibia 23.901
lfoot -20.9039 -1.42911
ltoes -28.2859
320
root -0.816917 17.5953 18.896 -162.365 -8.75191 183.192
lowerback -24.5267 -3.81593 -9.63395
upperback 1.08944 -2.50527 0.458528
thorax 14.8795 -1.96479 4.86535
lowerneck 3.77818 -8.78059 -2.20734
upperneck 19.0217 -15.3912 5.78121
head 5.79887 -8.10752 1.44314
rclavicle 4.57205e-015 -1.43125e-014
rhumerus -46.9355 -19.4775 -71.5975
rradius 31.4739
rwrist -1.2543
rhand -7.97906 -53.5293
rfingers 7.12502
rthumb 17.929 -82.7229
lclavicle 4.57205e-015 -1.43125e-014
lhumerus -33.9617 -1.23138 74.5244
lradius 24.7368
lwrist -1.65301
lhand -21.3177 -12.0308
lfingers 7.12502
lthumb 5.06764 17.8886
rfemur -46.8555 1.26214 7.62531
rtibia 22.2092
rfoot -16.2465 -14.7977
rtoes -27.2564
lfemur -16.0776 -17.6028 -16.3886
ltibia 23.7744
lfoot -21.2107 -2.10599
ltoes -25.1278
321
root -0.795777 17.5815 18.8337 -162.564 -9.07887 183.464
lowerback -24.5272 -3.87509 -9.54031
upperback 1.03078 -2.62971 0.562613
thorax 14.835 -2.01458 4.88318
lowerneck 4.0838 -8.82401 -2.12118
upperneck 18.9187 -15.4463 5.71728
head 5.70802 -8.1499 1.43096
rclavicle -1.72943e-014 -1.90833e-014
rhumerus -47.3568 -19.6116 -71.2882
rradius 31.3188
rwrist -1.10995
rhand -7.87557 -53.3414
rfingers 7.12502
rthumb 18.0286 -82.5258
lclavicle -1.72943e-014 -1.90833e-014
lhumerus -34.0858 -1.49993 74.5375
lradius 25.0448
lwrist -1.37615
lhand -21.6492 -11.8406
lfingers 7.12502
lthumb 4.74748 18.0862
rfemur -46.6561 1.58044 7.12262
rtibia 21.1529
rfoot -16.2114 -15.4234
rtoes -27.2639
lfemur -15.8101 -17.6253 -15.985
ltibia 23.9734
lfoot -21.508 -2.31773
ltoes -24.7705
322
root -0.773435 17.564 18.7644 -162.746 -9.43633 183.748
lowerback -24.6246 -3.92208 -9.42733
upperback 0.983843 -2.73318 0.667528
thorax 14.849 -2.05616 4.89521
lowerneck 4.14918 -8.70445 -2.3301
upperneck 19.0369 -15.3769 5.98036
head 5.76644 -8.12712 1.54364
rclavicle 3.8763e-014 3.81667e-014
rhumerus -47.8265 -19.9437 -70.8242
rradius 31.1509
rwrist -0.894148
rhand -7.43573 -52.8849
rfingers 7.12502
rthumb 18.4517 -82.0298
lclavicle 3.8763e-014 3.81667e-014
lhumerus -34.2037 -1.65906 74.4744
lradius 25.3706
lwrist -1.31785
lhand -21.4797 -11.8072
lfingers 7.12502
lthumb 4.91117 18.1159
rfemur -46.3565 1.72872 6.73849
rtibia 19.9523
rfoot -15.8916 -15.7903
rtoes -28.8013
lfemur -15.5563 -17.6947 -15.5888
ltibia 24.2996
lfoot -21.8777 -2.02343
ltoes -27.6197
323
root -0.74681 17.5457 18.6872 -163.02 -9.80333 183.852
lowerback -24.6606 -3.96959 -9.50402
upperback 0.984322 -2.77218 0.687441
thorax 14.8783 -2.08109 4.94248
lowerneck 4.00263 -8.58658 -2.61993
upperneck 19.533 -15.4167 6.30259
head 5.99646 -8.15899 1.6542
rclavicle 1.86858e-014 3.18055e-014
rhumerus -48.2756 -20.4373 -70.3948
rradius 30.8633
rwrist -0.452808
rhand -7.57586 -52.949
rfingers 7.12502
rthumb 18.3169 -82.1066
lclavicle 1.86858e-014 3.18055e-014
lhumerus -34.3252 -2.08637 74.4678
lradius 25.7506
lwrist -0.800656
lhand -21.3871 -11.7215
lfingers 7.12502
lthumb 5.00059 18.1995
rfemur -45.8297 2.03539 6.06201
rtibia 18.7118
rfoot -15.566 -16.2368
rtoes -29.1034
lfemur -15.1048 -17.7854 -15.4145
ltibia 24.5991
lfoot -22.2662 -1.93634
ltoes -29.4579
324
root -0.723853 17.5263 18.6097 -163.242 -10.1586 183.847
lowerback -24.7512 -4.0791 -9.64823
upperback 1.01093 -2.86354 0.689615
thorax 14.9756 -2.13691 4.98413
lowerneck 3.90319 -8.59852 -2.60673
upperneck 19.9859 -15.5391 6.18581
head 6.15524 -8.2335 1.58773
rclavicle 1.2921e-014 -1.27222e-014
rhumerus -48.6658 -20.5496 -70.2168
rradius 30.7786
rwrist -0.202156
rhand -8.06523 -53.5706
rfingers 7.12502
rthumb 17.8461 -82.7718
lclavicle 1.2921e-014 -1.27222e-014
lhumerus -34.4508 -2.5129 74.5052
lradius 26.1754
lwrist -0.244797
lhand -21.5962 -11.4103
lfingers 7.12502
lthumb 4.79865 18.5154
rfemur -45.3788 2.20691 5.3063
rtibia 17.6371
rfoot -15.4492 -16.592
rtoes -28.0355
lfemur -14.6666 -17.9687 -15.3756
ltibia 24.8018
lfoot -22.4961 -2.16569
ltoes -29.3908
325
root -0.70434 17.5075 18.5362 -163.341 -10.4701 183.93
lowerback -24.9083 -4.18756 -9.59701
upperback 0.968907 -3.01252 0.684336
thorax 15.0266 -2.20147 4.88683
lowerneck 4.02391 -8.63409 -2.47519
upperneck 20.0753 -15.6055 6.03942
head 6.1471 -8.27846 1.52435
rclavicle 2.26615e-014 3.33958e-014
rhumerus -48.9652 -20.3398 -70.3199
rradius 30.7862
rwrist -0.673363
rhand -8.22422 -53.9265
rfingers 7.12502
rthumb 17.6931 -83.1415
lclavicle 2.26615e-014 3.33958e-014
lhumerus -34.6192 -2.84982 74.4047
lradius 26.5452
lwrist 0.0742694
lhand -21.7016 -11.2376
lfingers 7.12502
lthumb 4.69695 18.6903
rfemur -45.2219 2.21558 4.75678
rtibia 16.8084
rfoot -15.1539 -16.8128
rtoes -27.3993
lfemur -14.4112 -18.1051 -15.2134
ltibia 24.958
lfoot -22.6771 -2.40112
ltoes -29.0397
326
root -0.678989 17.4897 18.4577 -163.577 -10.8502 184.032
lowerback -24.9487 -4.31153 -9.6158
upperback 0.952029 -3.17095 0.694449
thorax 15.0543 -2.27487 4.84548
lowerneck 4.4165 -8.79932 -2.38907
upperneck 19.7938 -15.8131 6.06138
head 5.99938 -8.39138 1.54078
rclavicle 3.35946e-014 -2.22639e-014
rhumerus -49.2311 -20.2845 -70.343
rradius 30.6345
rwrist -1.05347
rhand -8.30463 -53.7192
rfingers 7.12502
rthumb 17.6157 -82.9412
lclavicle 3.35946e-014 -2.22639e-014
lhumerus -34.8518 -3.30021 74.3297
lradius 26.9708
lwrist 0.416838
lhand -21.702 -11.4575
lfingers 7.12502
lthumb 4.69651 18.4705
rfemur -44.8609 2.38838 4.20527
rtibia 16.0399
rfoot -15.014 -17.2616
rtoes -26.3263
lfemur -13.9595 -18.2151 -15.0322
ltibia 25.0266
lfoot -22.8639 -2.74441
ltoes -27.8196
327
root -0.648916 17.4719 18.3729 -163.95 -11.2953 184.122
lowerback -24.9471 -4.4611 -9.77822
upperback 1.04164 -3.31634 0.749545
thorax 15.1955 -2.35913 4.93735
lowerneck 4.24884 -8.58302 -2.60014
upperneck 20.2068 -15.6298 6.15954
head 6.17244 -8.31525 1.58669
rclavicle 2.20651e-014 1.90833e-014
rhumerus -49.5816 -20.5803 -69.9699
rradius 30.4555
rwrist -0.525343
rhand -7.82143 -52.9951
rfingers 7.12502
rthumb 18.0807 -82.1747
lclavicle 2.20651e-014 1.90833e-014
lhumerus -35.0682 -3.77618 74.3702
lradius 27.5691
lwrist 0.787963
lhand -21.6182 -11.6607
lfingers 7.12502
lthumb 4.77745 18.2655
rfemur -44.1656 2.68294 3.63653
rtibia 15.0596
rfoot -14.7485 -17.952
rtoes -24.9966
lfemur -13.33 -18.3797 -14.8774
ltibia 25.1257
lfoot -23.0595 -3.17509
ltoes -26.0813
328
root -0.62122 17.4538 18.2918 -164.278 -11.7255 184.136
lowerback -24.9096 -4.61527 -9.9742
upperback 1.11468 -3.45993 0.770997
thorax 15.2987 -2.44286 5.01212
lowerneck 4.28027 -8.53483 -2.61832
upperneck 20.4532 -15.6593 6.20181
head 6.25327 -8.34238 1.59336
rclavicle -1.8487e-014 7.95139e-015
rhumerus -50.004 -21.0033 -69.4752
rradius 30.3321
rwrist 0.176118
rhand -7.10807 -52.488
rfingers 7.12502
rthumb 18.7669 -81.6027
lclavicle -1.8487e-014 7.95139e-015
lhumerus -35.2644 -4.1355 74.3605
lradius 28.1424
lwrist 1.10559
lhand -21.7043 -11.4766
lfingers 7.12502
lthumb 4.69432 18.4514
rfemur -43.5242 2.73253 3.13268
rtibia 14.145
rfoot -14.1012 -18.5668
rtoes -25.0756
lfemur -12.7556 -18.5426 -14.8155
ltibia 25.2221
lfoot -23.2402 -3.49259
ltoes -25.4245
329
root -0.594046 17.4313 18.2103 -164.495 -12.0324 184.123
lowerback -24.9415 -4.74168 -10.1544
upperback 1.12642 -3.56817 0.755782
thorax 15.3544 -2.50674 5.04801
lowerneck 4.65626 -8.68183 -2.43233
upperneck 20.4141 -15.8704 6.02087
head 6.16337 -8.46735 1.52393
rclavicle 1.95803e-014 1.90833e-014
rhumerus -50.3793 -21.1715 -69.2806
rradius 30.2735
rwrist 0.458431
rhand -6.88363 -52.7561
rfingers 7.12502
rthumb 18.9827 -81.8498
lclavicle 1.95803e-014 1.90833e-014
lhumerus -35.4258 -4.42096 74.2585
lradius 28.5235
lwrist 1.21808
lhand -21.9017 -11.2704
lfingers 7.12502
lthumb 4.50372 18.6617
rfemur -43.1645 2.66988 2.69979
rtibia 13.5496
rfoot -13.8377 -19.069
rtoes -25.1723
lfemur -12.2239 -18.6117 -14.7835
ltibia 25.1897
lfoot -23.3358 -3.89963
ltoes -24.002
330
root -0.564583 17.4065 18.1263 -164.629 -12.2591 184.18
lowerback -25.1211 -4.83861 -10.2377
upperback 1.13202 -3.65229 0.747644
thorax 15.4687 -2.55483 5.04095
lowerneck 5.15274 -8.8474 -2.29279
upperneck 19.9327 -15.9909 5.93715
head 5.91745 -8.53616 1.52135
rclavicle -2.89232e-014 -1.11319e-014
rhumerus -50.5745 -21.0177 -69.4017
rradius 30.1635
rwrist 0.252031
rhand -7.21169 -53.0094
rfingers 7.12502
rthumb 18.6672 -82.1337
lclavicle -2.89232e-014 -1.11319e-014
lhumerus -35.5827 -4.76556 74.1391
lradius 28.8763
lwrist 1.26232
lhand -21.9272 -11.3562
lfingers 7.12502
lthumb 4.47909 18.5764
rfemur -42.9716 2.7936 2.29238
rtibia 13.1193
rfoot -14.0226 -19.6821
rtoes -25.0869
lfemur -11.7549 -18.6888 -14.6544
ltibia 25.1793
lfoot -23.464 -4.12683
ltoes -23.0708
331
root -0.536522 17.3854 18.0446 -164.756 -12.5746 184.154
lowerback -25.2477 -4.97123 -10.3485
upperback 1.14814 -3.7738 0.691645
thorax 15.5724 -2.61942 4.98279
lowerneck 4.59419 -8.27265 -2.8406
upperneck 21.1253 -15.5511 6.2321
head 6.4319 -8.35518 1.63772
rclavicle -2.44505e-014 -6.83819e-014
rhumerus -50.7568 -20.8672 -69.5149
rradius 30.0472
rwrist 0.0516727
rhand -7.7577 -53.187
rfingers 7.12502
rthumb 18.142 -82.361
lclavicle -2.44505e-014 -6.83819e-014
lhumerus -35.7981 -5.24079 74.0175
lradius 29.3916
lwrist 1.43209
lhand -21.8747 -11.2318
lfingers 7.12502
lthumb 4.52974 18.6998
rfemur -42.6839 2.80734 1.82864
rtibia 12.6915
rfoot -14.104 -20.3729
rtoes -25.7384
lfemur -11.3365 -18.9091 -14.6225
ltibia 25.2704
lfoot -23.6547 -3.9985
ltoes -24.3621
